# xmcd
#
# Track frame offsets:
#	150
#	24407
#	34832
#	48377
#	60552
#	82317
#	93917
#	115320
#	136695
#	147485
#	171442
#	182665
#	194780
#	208235
#	226877
#
# Disc length: 3188 seconds
# Revision: 1
# Processed by: cddbd v1.5.2PL0 Copyright (c) Steve Scherf et al.
# Submitted via: dBpowerAMP V12.0
#
DISCID=dc0c720f
DTITLE=Various Artist - L'âme du blues [CD1)
DYEAR=1976
DGENRE=Jazz-Blues
TTITLE0=Muddy Waters - Mannish boy
TTITLE1=Keb Mo - Am i wrong
TTITLE2=Eddie Boyd and Fleetwod Mac - Shes real
TTITLE3=Aretha Franklin - Evil gal Blues
TTITLE4=Willie Dixon - Im Your Hoochie Coochie Man
TTITLE5=Robert Johnson - Phonograph Blues
TTITLE6=Son House - Levee Camp Moan
TTITLE7=Taj Mahal - Leaving Trunk
TTITLE8=Stevie Ray Vaughan - The house is Rockin
TTITLE9=Otis Span and Fleetwood Mac - My love depends on you
TTITLE10=Lightnin Hopkins - Tap Dance Boogie
TTITLE11=Brownie McGhee - Death of a blind boy fuller
TTITLE12=Champion Jack Dupree - Cabbage greens no 1
TTITLE13=Janis Joplin and Kozmic Blues Band - One good man
TTITLE14=Johnny Winther - Johnny B Goode
EXTD=
EXTT0=
EXTT1=
EXTT2=
EXTT3=
EXTT4=
EXTT5=
EXTT6=
EXTT7=
EXTT8=
EXTT9=
EXTT10=
EXTT11=
EXTT12=
EXTT13=
EXTT14=
PLAYORDER=
